<?xml version="1.0" encoding="utf-8"?>
<!-- Generator: Adobe Illustrator 21.0.0, SVG Export Plug-In . SVG Version: 6.00 Build 0)  -->
<svg version="1.1" id="圖層_1" xmlns="http://www.w3.org/2000/svg" xmlns:xlink="http://www.w3.org/1999/xlink" x="0px" y="0px"
	 viewBox="0 0 536.6 283.1" style="enable-background:new 0 0 536.6 283.1;" xml:space="preserve">
<style type="text/css">
	.st0{fill:#131B23;}
</style>
<g>
	<g>
		<path class="st0" d="M7.6,117l17.2-42.5l10.6,0.1L19,119.3L7.6,117z M27.4,65.8L11.1,49.4l5.1-9.4l17,16.2L27.4,65.8z M30.5,35.1
			l-17-16.3l5-9.5l17.4,16.1L30.5,35.1z M55.8,27.7L41.9,45l-9.6-5.8L50.6,9.9l9.2,1.2l-1,5.8l64.3-0.4l-0.1,8.5L55.8,27.7z
			 M117.8,75.8l-5.3,19.8l11.4-1.1l-1.7,9.7l-10.9,0.6l-17.9,17.2l-15.8-1.4l1-10.9l12.7,0.7l3.9-0.7l5.2-4.4l-52.3,0.4l-1.3,3.8
			l-12-3.2L47.4,75l-12.1,0.9l1.8-9.4l12.3-2.4l2.2-26l5.4-5.5l57.4,3.1l5.1,3.8l-2.8,25.6l8.1-0.4l-1,9.9L117.8,75.8z M105,76.6
			L57,74l-4.8,20.3l51.1,2.3L105,76.6z M66.1,46.5L61.6,48L60,64l47,2.4l1.4-17.2l-3.6-5.3L66.1,46.5z M82,96l-9.1-13.5l6.3-7.4
			l9.3,13.3L82,96z M83,66.2l-8.4-14.3l6.8-6.8L90,59.1L83,66.2z"/>
		<path class="st0" d="M131.8,115.5l23.4-43.9l10.6,1.3l-22.6,46.4L131.8,115.5z M156.6,64.4L135,49.8l3.5-10.2L160.4,54L156.6,64.4
			z M159.8,35.7l-22-15.9l3.7-10l22.4,15.5L159.8,35.7z M199.4,97.8l-31.6-2.4l-0.7-10.4l33.9,2.2L200.8,68l-29.6-0.3l-0.1-9.2
			l30,0.5l-1.3-15.8l-32.3,0.4l0.6-12.5l42.7-0.4L222,8.2l11,3.8l-10.6,19.7l22.6-1.5l-1,9.8l-32.7,2.5l0.4,14l31.1-0.5l-1,11.7
			l-30.4,1.8l-0.8,17l36-1l-0.3,10.3l-36.2-0.3l1.8,27.2l-12.7,0.2L199.4,97.8z M188.4,31.9L177.5,15l6.6-7.8L195.4,24L188.4,31.9z"
			/>
		<path class="st0" d="M298.7,265.8l-1.4,4.9l-9.9,1l2.4-97.8l1.7-2.5l21.1,0.3l2.8,2.2l-0.5,87.3l-2.2,4.8L298.7,265.8z
			 M304.7,181.9l-0.1-2.7l-5,2.2l-2.9,0.5l0.7,73.1l7,0.8l2.4-2.8L304.7,181.9z M316.2,266.1l32.1-19.9l-28.7,2l0.7-9.7l32.7-0.7
			l0.3-5.6l9.7-0.4l0.1,6.4l35.8-2.5l0.1,13.4l-32.7-1.8l34,18.8l-6.8,9.4l-28.4-17.1l-2.1,18.3l-10.9,0.7l2.3-22.7l-30.5,21.6
			L316.2,266.1z M356.3,227.3l-3.1,0.4l-30.7,2.2l0.1-2.5l-0.7-26.4l0.6-0.4l30.7-0.4l0.5,0.9L356.3,227.3z M390,193.8l-3.1,0.3
			l-57.5,2.2l-0.2-2.4l-0.7-25.3l0.9-0.6l57.5-0.4l0.5,1.1L390,193.8z M344.6,210.8L331,208l0.7,1.5l-2.3,9.3l1.6,1l13.7,0.3
			l0.9-1.3l0.5-9.4L344.6,210.8z M376.2,176.9l1.2-1.6l-38.7,2.2L337,177l0.7,8.1l1,1.5l38.7-0.4l1.4-1.2L376.2,176.9z M397.1,227.3
			l-3,0.4l-31.7,2.2l-0.1-2.5l-0.7-26.9l0.8-0.4l31.7-0.4l0.4,0.9L397.1,227.3z M385.4,210.3l-14.6-2.7l0.7,1.5l-2.3,9.8l1.6,1
			l14.6,0.3l0.9-1.3l0.5-9.9L385.4,210.3z"/>
		<path class="st0" d="M408.8,212.9l0.5-10.4l29.9-2l-2.8-17.1l-22,0.5l-0.1-8.5l45.8-0.4l0.6-8.9l10.8-2l-0.7,8.5l45.4,1.9
			l0.2,10.4l-21.3,0.1l-4,14.6l30.7,2.3l0.3,10.4L408.8,212.9z M502.6,217.8l1,3.5l2.2,55.6l-10.1-1.2l-0.7-7.2l-60-0.3l-0.2,8.1
			l-9,0.2l-2.6-55.6l3.3-3.5L502.6,217.8z M494.6,238.7l1.4-8.6l-2.6-0.3l-56.9-2.4l-2.1,2.8l0.5,10.9L494.6,238.7z M435.3,250.9
			l-0.5,10l59.9-2.2l0.4-10.8L435.3,250.9z M447.2,185.9l2.8,16.5l28.7-1.9l5.9-17.2L447.2,185.9z"/>
	</g>
</g>
</svg>
